<svg id="Capa_1" enable-background="new 0 0 512 512" height="64" viewBox="0 0 512 512" width="64" xmlns="http://www.w3.org/2000/svg"><g><path d="m207.93 30c108.088 5.907 188.57 66.432 188.57 174.223v93.417h15c8.284 0 15-6.716 15-15v-78c0-54.965-18.864-102.883-54.555-138.572-59.629-59.63-146.657-66.068-181.305-66.068-8.332 0-15.072 6.799-14.999 15.13.043 5.041.085 10.04.121 14.87z"/><path d="m138.49 246.911 72.925-38.406c-4.547 14.283-12.469 26.64-21.615 40.907-14.004 21.843-29.411 45.888-36.158 82.588h212.858c0-43.941 0-102.514 0-127.964 0-91.167-69-138.714-160.241-144.036h-30.411c-.002.333-95.787 101.299-95.787 101.299-5.196 5.035-6.058 13.063-2.047 19.086l41 61.569c4.263 6.399 12.671 8.543 19.476 4.957z"/><path d="m131.5 362c-8.284 0-15 6.716-15 15v44h290v-44c0-8.284-6.716-15-15-15z"/><path d="m86.5 451v46c0 8.284 6.716 15 15 15h320c8.284 0 15-6.716 15-15v-46z"/></g></svg>